<svg width="116" height="116" viewBox="0 0 116 116" fill="none" xmlns="http://www.w3.org/2000/svg">
<path d="M102.997 49.3435C103.587 52.507 103.909 55.8144 103.909 59.2659C103.909 86.2631 85.84 105.46 58.55 105.46C52.3439 105.462 46.1982 104.241 40.4642 101.866C34.7301 99.4924 29.52 96.0117 25.1317 91.6233C20.7433 87.2349 17.2626 82.0249 14.8885 76.2908C12.5144 70.5567 11.2934 64.4111 11.2953 58.205C11.2934 51.9989 12.5144 45.8532 14.8885 40.1191C17.2626 34.3851 20.7433 29.175 25.1317 24.7866C29.52 20.3982 34.7301 16.9176 40.4642 14.5435C46.1982 12.1694 52.3439 10.9484 58.55 10.9503C71.3094 10.9503 81.971 15.645 90.1508 23.268L76.8298 36.589V36.5554C71.871 31.8318 65.5777 29.4076 58.55 29.4076C42.9584 29.4076 30.2855 42.5798 30.2855 58.1762C30.2855 73.7677 42.9584 86.9687 58.55 86.9687C72.6967 86.9687 82.3262 78.8801 84.3039 67.7721H58.55V49.3435H103.001H102.997Z" fill="#f26440"/>
</svg>
