<svg width="24px" height="24px" viewBox="0 0 24 24" fill="none" xmlns="http://www.w3.org/2000/svg">
<path d="M21.75 5.96017C21.0328 6.26954 20.2523 6.4922 19.4484 6.57892C20.2831 6.08306 20.9081 5.2997 21.2063 4.37579C20.4231 4.8417 19.5651 5.16841 18.6703 5.34142C18.2964 4.94163 17.8441 4.62315 17.3417 4.40581C16.8392 4.18847 16.2974 4.07693 15.75 4.07813C13.5352 4.07813 11.7539 5.87345 11.7539 8.07657C11.7539 8.38595 11.7914 8.69532 11.8524 8.99298C8.53596 8.81954 5.57815 7.23517 3.61174 4.80939C3.25344 5.42137 3.06568 6.1182 3.06799 6.82735C3.06799 8.21486 3.77346 9.43829 4.84924 10.1578C4.21527 10.1329 3.59614 9.9586 3.04221 9.64923V9.69845C3.04221 11.6414 4.41565 13.2516 6.24611 13.6219C5.90242 13.7112 5.54887 13.7568 5.19377 13.7578C4.93362 13.7578 4.68752 13.732 4.43908 13.6969C4.94533 15.2813 6.41955 16.432 8.17502 16.4695C6.80158 17.5453 5.08127 18.1781 3.2133 18.1781C2.87815 18.1781 2.56877 18.1664 2.24768 18.1289C4.01955 19.2656 6.1219 19.9219 8.38596 19.9219C15.7359 19.9219 19.7578 13.8328 19.7578 8.54767C19.7578 8.37423 19.7578 8.20079 19.7461 8.02736C20.5242 7.45782 21.2063 6.75235 21.75 5.96017Z" fill="#ffffff"/>
</svg>
