<svg width="129" height="129" viewBox="0 0 129 129" fill="none" xmlns="http://www.w3.org/2000/svg">
<path d="M103.954 96.1197C103.541 96.0072 103.041 96.0697 102.466 96.2822C94.7656 99.8074 87.2776 102.32 80.002 103.808C64.2884 107.008 48.9748 105.333 34.0737 98.7949C29.9359 96.9697 24.1854 93.8945 16.8224 89.5442C16.6327 89.3944 16.4012 89.3071 16.1598 89.2942C15.9098 89.2817 15.6973 89.3067 15.4973 89.4067C15.2973 89.5067 15.1473 89.6317 15.0348 89.7942C14.9222 89.9567 14.8972 90.1817 14.9847 90.4693C15.0598 90.7443 15.2473 91.0568 15.5598 91.3943C16.8599 92.9194 18.4725 94.5445 20.3851 96.2697C22.2978 97.9948 24.8355 99.945 27.9982 102.12C31.1609 104.295 34.4737 106.233 37.9114 107.921C41.3617 109.608 45.362 111.033 49.9248 112.183C54.4877 113.333 59.0505 113.908 63.6008 113.908C68.1262 113.908 72.5265 113.446 76.7893 112.546C81.0646 111.633 84.6649 110.558 87.6026 109.308C90.5278 108.071 93.228 106.683 95.7032 105.183C98.1784 103.683 100.004 102.408 101.191 101.395C102.379 100.37 103.229 99.5699 103.716 98.9699C104.291 98.2573 104.579 97.6448 104.579 97.1072C104.591 96.5447 104.366 96.2197 103.954 96.1197ZM66.7511 43.5157C64.8509 43.6783 62.5633 44.0283 59.8756 44.5533C57.1879 45.0659 54.7002 45.7159 52.4 46.4785C50.0998 47.241 47.7497 48.3036 45.362 49.6537C42.9618 51.0038 40.9242 52.5539 39.2365 54.279C37.5489 56.0042 36.1738 58.1668 35.0987 60.7795C34.0237 63.3797 33.4861 66.2424 33.4861 69.3677C33.4861 72.7554 34.0737 75.7682 35.2737 78.4309C36.4613 81.0936 38.0489 83.1812 40.0491 84.7313C42.0367 86.2814 44.2994 87.494 46.7996 88.3816C49.2998 89.2692 51.95 89.6692 54.7002 89.5567C57.4504 89.4442 60.1381 89.0191 62.7508 88.2691C65.351 87.5315 67.8011 86.3439 70.0763 84.7313C72.3515 83.1187 74.2141 81.2061 75.6767 79.0184C76.2143 79.8435 76.6893 80.456 77.1143 80.856L78.2019 81.9686C78.927 82.7062 80.0395 83.7937 81.5396 85.2314C83.0273 86.669 84.5524 88.0691 86.0775 89.4442L99.1284 76.9557L98.3784 76.3432C97.8409 75.9307 97.2033 75.3431 96.4782 74.5556C95.7532 73.7805 95.0281 72.9179 94.3281 71.9929C93.6155 71.0678 93.003 69.9802 92.4905 68.7551C91.9779 67.53 91.7154 66.3424 91.7154 65.1924V32.3399C91.7154 31.0773 91.4779 29.7147 91.0029 28.2396C90.5153 26.777 89.6653 25.1769 88.4152 23.4518C87.1651 21.7266 85.615 20.1765 83.7648 18.8264C81.9022 17.4763 79.427 16.3262 76.3143 15.4012C73.214 14.4761 69.7388 14.0135 65.9135 14.0135C62.0007 14.0135 58.3629 14.4761 54.9627 15.3762C51.5749 16.2887 48.6747 17.5013 46.2496 19.0264C43.8369 20.5515 41.7617 22.3142 40.0366 24.3268C38.3115 26.3395 37.0239 28.4396 36.1863 30.6273C35.3487 32.8149 34.9237 35.0276 34.9237 37.2653L51.825 38.7529C52.5125 36.7027 53.4376 34.9276 54.5752 33.4025C55.7253 31.8774 56.8128 30.7773 57.8004 30.0897C58.8005 29.4022 59.8756 28.8522 61.0131 28.4396C62.1632 28.0271 62.9383 27.8146 63.3383 27.7646C63.7383 27.7271 64.0509 27.7146 64.2884 27.7146C67.6261 27.7146 69.9388 28.7021 71.2389 30.6648C72.0515 31.8524 72.4515 33.6525 72.4515 36.0777V43.1532C70.5513 43.2282 68.6512 43.3532 66.7511 43.5157ZM72.464 62.5047C72.464 64.5798 72.189 66.4675 71.6514 68.1301C70.5013 71.7679 68.3137 74.0555 65.1009 74.9806C62.3007 75.8057 59.638 75.3931 57.1129 73.7555C54.4252 72.0054 53.0876 69.5302 53.0876 66.3424C53.0876 63.8548 53.7126 61.7296 54.9627 59.9545C56.2128 58.1918 57.8754 56.8667 59.9631 55.9917C62.0507 55.1166 64.0884 54.4916 66.0885 54.129C68.0762 53.754 70.2138 53.529 72.464 53.454V62.5047ZM114.367 89.8692C113.83 89.1942 112.379 88.7566 110.004 88.5316C107.629 88.3066 105.566 88.3191 103.791 88.5816C101.879 88.8066 99.9035 89.3567 97.8784 90.2567C95.8407 91.1443 94.9531 91.8944 95.1782 92.4819L95.2657 92.6444L95.3782 92.7319L95.5532 92.7569H96.1282C96.2282 92.7569 96.3532 92.7444 96.5283 92.7319C96.7033 92.7194 96.8658 92.6944 97.0158 92.6819C97.1658 92.6694 97.3783 92.6444 97.6533 92.6319C97.9159 92.6194 98.1659 92.5819 98.4034 92.5444C98.4409 92.5444 98.8659 92.5069 99.691 92.4319C100.516 92.3569 101.116 92.3069 101.479 92.2694C101.841 92.2319 102.454 92.1944 103.291 92.1569C104.129 92.1194 104.804 92.1194 105.304 92.1569C105.804 92.1944 106.366 92.2444 107.004 92.2944C107.642 92.3444 108.154 92.4569 108.554 92.6319C108.954 92.7944 109.254 93.0069 109.442 93.2695C110.092 94.0945 109.967 95.9197 109.067 98.7574C108.167 101.595 107.317 103.858 106.516 105.533C106.166 106.245 106.166 106.683 106.516 106.87C106.867 107.058 107.354 106.883 108.004 106.37C109.954 104.845 111.579 102.545 112.892 99.4574C113.655 97.6323 114.205 95.7321 114.53 93.7445C114.83 91.7569 114.78 90.4693 114.367 89.8692Z" fill="#f26440"/>
</svg>
