<svg width="24" height="24" viewBox="0 0 24 24" fill="none" xmlns="http://www.w3.org/2000/svg">
<path d="M12.0001 8.87579C10.2798 8.87579 8.8759 10.2797 8.8759 12C8.8759 13.7203 10.2798 15.1242 12.0001 15.1242C13.7204 15.1242 15.1243 13.7203 15.1243 12C15.1243 10.2797 13.7204 8.87579 12.0001 8.87579ZM21.3704 12C21.3704 10.7063 21.3822 9.42423 21.3095 8.13282C21.2368 6.63282 20.8947 5.30157 19.7978 4.2047C18.6986 3.10548 17.3697 2.76564 15.8697 2.69298C14.5759 2.62033 13.2939 2.63204 12.0025 2.63204C10.7087 2.63204 9.42668 2.62033 8.13527 2.69298C6.63527 2.76564 5.30402 3.10783 4.20714 4.2047C3.10792 5.30392 2.76808 6.63282 2.69542 8.13282C2.62277 9.42657 2.63449 10.7086 2.63449 12C2.63449 13.2914 2.62277 14.5758 2.69542 15.8672C2.76808 17.3672 3.11027 18.6984 4.20714 19.7953C5.30636 20.8945 6.63527 21.2344 8.13527 21.307C9.42902 21.3797 10.7111 21.368 12.0025 21.368C13.2962 21.368 14.5782 21.3797 15.8697 21.307C17.3697 21.2344 18.7009 20.8922 19.7978 19.7953C20.897 18.6961 21.2368 17.3672 21.3095 15.8672C21.3845 14.5758 21.3704 13.2938 21.3704 12ZM12.0001 16.807C9.33996 16.807 7.19308 14.6602 7.19308 12C7.19308 9.33986 9.33996 7.19298 12.0001 7.19298C14.6603 7.19298 16.8072 9.33986 16.8072 12C16.8072 14.6602 14.6603 16.807 12.0001 16.807ZM17.004 8.11876C16.3829 8.11876 15.8814 7.6172 15.8814 6.99611C15.8814 6.37501 16.3829 5.87345 17.004 5.87345C17.6251 5.87345 18.1267 6.37501 18.1267 6.99611C18.1269 7.14359 18.098 7.28966 18.0416 7.42595C17.9853 7.56224 17.9026 7.68607 17.7983 7.79036C17.694 7.89464 17.5702 7.97733 17.4339 8.03368C17.2976 8.09003 17.1515 8.11895 17.004 8.11876Z" fill="#ffffff"/>
</svg>
