<svg width="80" height="80" viewBox="0 0 80 80" fill="none" xmlns="http://www.w3.org/2000/svg">
<g clip-path="url(#clip0_109_516)">
<path d="M39.9875 60.885C35.4825 55.235 32.84 50.285 31.9525 46.04C31.08 42.615 31.4175 39.88 32.93 37.825C34.5175 35.455 36.875 34.31 39.9875 34.31C43.1 34.31 45.47 35.455 47.0575 37.8525C48.5425 39.885 48.92 42.6175 48.0075 46.0675C47.03 50.39 44.3875 55.3375 39.9725 60.9125L39.9875 60.885ZM71.98 64.6875C71.3675 68.84 68.5425 72.2775 64.65 73.9575C57.15 77.225 49.715 72.0175 43.36 64.9475C53.8675 51.7825 55.82 41.535 51.3025 34.9075C48.66 31.105 44.8575 29.2575 39.9875 29.2575C30.1825 29.2575 24.7925 37.5525 26.915 47.1875C28.14 52.41 31.42 58.3325 36.6275 64.96C33.36 68.5675 30.26 71.145 27.525 72.7325C25.4025 73.8775 23.3725 74.5825 21.43 74.75C12.51 76.0775 5.505 67.4325 8.6825 58.5C9.125 57.34 10.01 55.2325 11.5075 51.9625L11.585 51.78C16.4675 41.195 22.3925 29.1625 29.19 15.8175L29.3725 15.375L31.3 11.665C32.81 8.9175 33.4225 7.6925 35.805 6.1825C36.965 5.4925 38.37 5.14 39.9575 5.14C43.135 5.14 45.6075 6.99 46.6775 8.4875C47.1975 9.2825 47.8225 10.35 48.6175 11.665L50.48 15.2975L50.74 15.8175C57.5375 29.165 63.475 41.17 68.33 51.78L68.4075 51.87L70.1925 55.9325L71.2475 58.485C72.055 60.5175 72.2375 62.5475 71.9625 64.67L71.98 64.6875ZM76.0425 56.7325C75.43 54.78 74.3625 52.4875 73.0475 49.7525V49.6475C66.7575 36.3 60.9125 24.295 55.365 13.515L55 12.98C51.0425 4.8675 48.215 -0.00250244 39.9875 -0.00250244C31.8625 -0.00250244 28.4125 5.6475 24.8825 12.9925L24.61 13.5275C19.05 24.295 13.2175 36.315 6.94 49.66V49.8425L5.0775 53.905C4.3875 55.585 4.0225 56.4575 3.9325 56.73C-0.572498 69.1 8.71 79.96 19.935 79.96C20.025 79.96 20.3775 79.96 20.8075 79.8825H22.0575C27.89 79.1675 33.8925 75.455 39.9875 68.8275C46.0825 75.455 52.11 79.165 57.93 79.8825H59.1675C59.61 79.96 59.9625 79.96 60.0525 79.96C71.2775 79.9725 80.5475 69.1 76.0425 56.73V56.7325Z" fill="#f26440"/>
</g>
<defs>
<clipPath id="clip0_109_516">
<rect width="80" height="80" fill="white"/>
</clipPath>
</defs>
</svg>
