<svg width="24" height="24" viewBox="0 0 24 24" fill="none" xmlns="http://www.w3.org/2000/svg">
<g clip-path="url(#clip0_109_470)">
<path d="M5.74446 21H1.39071V6.9795H5.74446V21ZM3.56496 5.067C2.17296 5.067 1.04346 3.9135 1.04346 2.5215C1.04346 1.85276 1.30911 1.2114 1.78199 0.73853C2.25486 0.265657 2.89621 0 3.56496 0C4.2337 0 4.87505 0.265657 5.34793 0.73853C5.8208 1.2114 6.08646 1.85276 6.08646 2.5215C6.08646 3.9135 4.95696 5.067 3.56496 5.067ZM22.039 21H17.695V14.175C17.695 12.5482 17.662 10.4625 15.4315 10.4625C13.168 10.4625 12.8207 12.2295 12.8207 14.058V21H8.47146V6.9795H12.6467V8.892H12.7075C13.2887 7.79025 14.7085 6.62775 16.8265 6.62775C21.2327 6.62775 22.0427 9.5295 22.0427 13.2983V21H22.039Z" fill="#ffffff"/>
</g>
<defs>
<clipPath id="clip0_109_470">
<rect width="24" height="24" fill="white"/>
</clipPath>
</defs>
</svg>
